<?xml version="1.0" encoding="utf-8"?>
<!-- Generator: Adobe Illustrator 25.2.0, SVG Export Plug-In . SVG Version: 6.00 Build 0)  -->
<svg version="1.1"
	 id="svg8" inkscape:export-filename="C:\Users\willb\OneDrive\Documents\Site WB\Fav icons\iconWB16.png" xmlns:cc="http://creativecommons.org/ns#" xmlns:dc="http://purl.org/dc/elements/1.1/" xmlns:inkscape="http://www.inkscape.org/namespaces/inkscape" xmlns:rdf="http://www.w3.org/1999/02/22-rdf-syntax-ns#" xmlns:sodipodi="http://sodipodi.sourceforge.net/DTD/sodipodi-0.dtd" xmlns:svg="http://www.w3.org/2000/svg"
	 xmlns="http://www.w3.org/2000/svg" xmlns:xlink="http://www.w3.org/1999/xlink" x="0px" y="0px" viewBox="0 0 192 192"
	 style="enable-background:new 0 0 192 192;" xml:space="preserve">
<style type="text/css">
	.st0{fill:#00DFC4;stroke:#FF41B4;stroke-width:5;stroke-miterlimit:15.1181;}
</style>
<sodipodi:namedview  bordercolor="#666666" borderopacity="1.0" id="base" inkscape:current-layer="layer1" inkscape:cx="111.69722" inkscape:cy="80.866377" inkscape:document-rotation="0" inkscape:document-units="mm" inkscape:pageopacity="0.0" inkscape:pageshadow="2" inkscape:window-height="1001" inkscape:window-maximized="1" inkscape:window-width="1920" inkscape:window-x="2391" inkscape:window-y="-9" inkscape:zoom="2.8284271" pagecolor="#ffffff" showgrid="false" units="px">
	</sodipodi:namedview>
<circle id="path18" cx="97.6" cy="97.1" r="90.8"/>
<path id="path845" sodipodi:nodetypes="cccccccccccc" class="st0" d="M93.6,3.8v158.8L54.7,93.9l3.5,84.7c0,0,0,0-50.8-75.3
	C6.6,94.4,8.4,79,9.7,73.9c28,41.1,28,41.1,28,41.1s0,0-11.1-75.9c1.2-1.7,8-9.3,11.4-12.1l37.7,65l-1.2-85C81.7,5,88.1,4,93.6,3.8z
	"/>
<path class="st0" d="M154,75.9c0,0,25.4-67.1-49.6-72.1v184.5c32.7-1.8,63.6-21.8,77.5-51.1C198,99.5,154,75.9,154,75.9z
	 M121.9,23.3c0,0,20.5,2.1,20.2,29.2c-0.1,16.7-7.5,19.8-20.6,14L121.9,23.3z M121.3,169.7c-0.2-81.1,0,0-0.2-81.1
	c14-9.2,48.7,9.5,49.2,32.4C170.6,144.1,133.2,169,121.3,169.7z"/>
</svg>
